<svg xmlns="http://www.w3.org/2000/svg" width="23.886" height="24" viewBox="0 0 23.886 24">
  <path id="whatsapp" d="M17.472,14.382c-.3-.149-1.758-.867-2.03-.967s-.471-.148-.67.15-.767.966-.94,1.164-.347.223-.644.075a8.158,8.158,0,0,1-2.39-1.475A8.945,8.945,0,0,1,9.145,11.27c-.173-.3-.018-.458.13-.606s.3-.347.446-.52a2.05,2.05,0,0,0,.3-.5.544.544,0,0,0-.025-.52c-.075-.149-.669-1.612-.916-2.207-.242-.579-.487-.5-.669-.51s-.371-.01-.57-.01a1.089,1.089,0,0,0-.792.372,3.332,3.332,0,0,0-1.04,2.479A5.791,5.791,0,0,0,7.22,12.325,13.255,13.255,0,0,0,12.3,16.812a16.8,16.8,0,0,0,1.694.625,4.054,4.054,0,0,0,1.871.118,3.061,3.061,0,0,0,2.006-1.413,2.472,2.472,0,0,0,.173-1.413c-.074-.124-.272-.2-.57-.347m-5.421,7.4h0a9.871,9.871,0,0,1-5.032-1.378l-.36-.214-3.741.982,1-3.648-.235-.374a9.885,9.885,0,1,1,8.374,4.632m8.413-18.3A11.9,11.9,0,0,0,1.745,17.837L.057,24l6.3-1.654a11.882,11.882,0,0,0,5.683,1.448h0A11.9,11.9,0,0,0,20.463,3.488Z" transform="translate(-0.057)" fill="#fff"/>
</svg>
